<svg width="36" height="36" viewBox="0 0 36 36" fill="none" xmlns="http://www.w3.org/2000/svg">
<rect width="36" height="36" rx="3" fill="#3AEA4C"/>
<path d="M12.1667 24.5576L17.3152 24.5395L28.5526 13.012C28.9936 12.5552 29.2362 11.9486 29.2362 11.3034C29.2362 10.6581 28.9936 10.0516 28.5526 9.59481L26.7022 7.67839C25.8202 6.76489 24.2814 6.76973 23.4064 7.67477L12.1667 19.2047V24.5576ZM25.0526 9.38698L26.9064 11.2998L25.0432 13.2114L23.1929 11.2961L25.0526 9.38698ZM14.5001 20.2124L21.5351 12.9951L23.3854 14.9115L16.3516 22.1264L14.5001 22.1325V20.2124Z" fill="#F8F8F8"/>
<path d="M9.83333 29.375H26.1667C27.4535 29.375 28.5 28.2911 28.5 26.9583V16.4845L26.1667 18.9012V26.9583H13.5177C13.4873 26.9583 13.4558 26.9704 13.4255 26.9704C13.387 26.9704 13.3485 26.9595 13.3088 26.9583H9.83333V10.0417H17.8215L20.1548 7.625H9.83333C8.5465 7.625 7.5 8.70887 7.5 10.0417V26.9583C7.5 28.2911 8.5465 29.375 9.83333 29.375Z" fill="#F8F8F8"/>
</svg>
