<svg width="36" height="30" viewBox="0 0 36 30" fill="none" xmlns="http://www.w3.org/2000/svg">
<path d="M32.4 0.600098H3.6C1.62 0.600098 0.018 2.2201 0.018 4.2001L0 25.8001C0 27.7801 1.62 29.4001 3.6 29.4001H32.4C34.38 29.4001 36 27.7801 36 25.8001V4.2001C36 2.2201 34.38 0.600098 32.4 0.600098ZM31.68 8.2501L18.954 16.2061C18.378 16.5661 17.622 16.5661 17.046 16.2061L4.32 8.2501C4.13951 8.14878 3.98145 8.01189 3.8554 7.84771C3.72934 7.68354 3.63791 7.4955 3.58664 7.29496C3.53536 7.09443 3.52531 6.88558 3.55708 6.68105C3.58886 6.47652 3.66181 6.28056 3.77151 6.10504C3.88121 5.92952 4.02538 5.77808 4.19531 5.65989C4.36523 5.5417 4.55737 5.45922 4.76009 5.41744C4.96282 5.37565 5.17191 5.37544 5.37472 5.4168C5.57753 5.45817 5.76983 5.54026 5.94 5.6581L18 13.2001L30.06 5.6581C30.2302 5.54026 30.4225 5.45817 30.6253 5.4168C30.8281 5.37544 31.0372 5.37565 31.2399 5.41744C31.4426 5.45922 31.6348 5.5417 31.8047 5.65989C31.9746 5.77808 32.1188 5.92952 32.2285 6.10504C32.3382 6.28056 32.4111 6.47652 32.4429 6.68105C32.4747 6.88558 32.4646 7.09443 32.4134 7.29496C32.3621 7.4955 32.2707 7.68354 32.1446 7.84771C32.0185 8.01189 31.8605 8.14878 31.68 8.2501Z" fill="#F8F8F8"/>
</svg>
