<svg width="28" height="36" viewBox="0 0 28 36" fill="none" xmlns="http://www.w3.org/2000/svg">
<path d="M14 27.3332C14.8841 27.3332 15.7319 26.982 16.357 26.3569C16.9821 25.7317 17.3333 24.8839 17.3333 23.9998C17.3333 23.1158 16.9821 22.2679 16.357 21.6428C15.7319 21.0177 14.8841 20.6665 14 20.6665C13.1159 20.6665 12.2681 21.0177 11.643 21.6428C11.0179 22.2679 10.6667 23.1158 10.6667 23.9998C10.6667 24.8839 11.0179 25.7317 11.643 26.3569C12.2681 26.982 13.1159 27.3332 14 27.3332ZM24 12.3332C24.8841 12.3332 25.7319 12.6844 26.357 13.3095C26.9821 13.9346 27.3333 14.7824 27.3333 15.6665V32.3332C27.3333 33.2172 26.9821 34.0651 26.357 34.6902C25.7319 35.3153 24.8841 35.6665 24 35.6665H4C3.11595 35.6665 2.2681 35.3153 1.64298 34.6902C1.01786 34.0651 0.666668 33.2172 0.666668 32.3332V15.6665C0.666668 14.7824 1.01786 13.9346 1.64298 13.3095C2.2681 12.6844 3.11595 12.3332 4 12.3332H5.66667V8.99984C5.66667 6.7897 6.54464 4.67008 8.10744 3.10728C9.67025 1.54448 11.7899 0.666504 14 0.666504C15.0943 0.666504 16.178 0.882052 17.189 1.30084C18.2001 1.71963 19.1187 2.33346 19.8926 3.10728C20.6664 3.8811 21.2802 4.79976 21.699 5.81081C22.1178 6.82185 22.3333 7.90549 22.3333 8.99984V12.3332H24ZM14 3.99984C12.6739 3.99984 11.4021 4.52662 10.4645 5.4643C9.52678 6.40199 9 7.67375 9 8.99984V12.3332H19V8.99984C19 7.67375 18.4732 6.40199 17.5355 5.4643C16.5979 4.52662 15.3261 3.99984 14 3.99984Z" fill="#F8F8F8"/>
</svg>
